<mxfile host="app.diagrams.net" modified="2023-10-09T13:18:31.755Z" agent="Mozilla/5.0 (Windows NT 10.0; Win64; x64) AppleWebKit/537.36 (KHTML, like Gecko) Chrome/103.0.0.0 Safari/537.36" etag="_pi-_hZdgLVu5bId7GS8" version="22.0.4" type="github">
  <diagram name="第 1 页" id="smo9T2fbqRI_CzW19gDa">
    <mxGraphModel dx="2316" dy="758" grid="0" gridSize="10" guides="1" tooltips="1" connect="1" arrows="1" fold="1" page="0" pageScale="1" pageWidth="827" pageHeight="1169" math="0" shadow="0">
      <root>
        <mxCell id="0" />
        <mxCell id="1" parent="0" />
        <mxCell id="_snlsDBNaLdueII8mJO5-3" value="" style="shape=partialRectangle;whiteSpace=wrap;html=1;bottom=1;right=1;left=1;top=0;fillColor=none;routingCenterX=-0.5;strokeColor=#FF9999;" vertex="1" parent="1">
          <mxGeometry x="239" y="633" width="100" height="10" as="geometry" />
        </mxCell>
        <mxCell id="_snlsDBNaLdueII8mJO5-10" value="" style="shape=partialRectangle;whiteSpace=wrap;html=1;bottom=1;right=1;left=1;top=0;fillColor=none;routingCenterX=-0.5;strokeColor=#FF9999;" vertex="1" parent="1">
          <mxGeometry x="339" y="633" width="100" height="10" as="geometry" />
        </mxCell>
        <mxCell id="_snlsDBNaLdueII8mJO5-11" value="" style="shape=partialRectangle;whiteSpace=wrap;html=1;bottom=1;right=1;left=1;top=0;fillColor=none;routingCenterX=-0.5;strokeColor=#FF9999;" vertex="1" parent="1">
          <mxGeometry x="439" y="633" width="100" height="10" as="geometry" />
        </mxCell>
        <mxCell id="_snlsDBNaLdueII8mJO5-12" value="" style="endArrow=classic;html=1;rounded=0;" edge="1" parent="1">
          <mxGeometry width="50" height="50" relative="1" as="geometry">
            <mxPoint x="239" y="705" as="sourcePoint" />
            <mxPoint x="239" y="645" as="targetPoint" />
          </mxGeometry>
        </mxCell>
        <mxCell id="_snlsDBNaLdueII8mJO5-13" value="3个时间段" style="text;html=1;strokeColor=none;fillColor=none;align=center;verticalAlign=middle;whiteSpace=wrap;rounded=0;" vertex="1" parent="1">
          <mxGeometry x="162" y="665" width="60" height="30" as="geometry" />
        </mxCell>
        <mxCell id="_snlsDBNaLdueII8mJO5-14" value="" style="endArrow=classic;html=1;rounded=0;" edge="1" parent="1">
          <mxGeometry width="50" height="50" relative="1" as="geometry">
            <mxPoint x="289" y="762" as="sourcePoint" />
            <mxPoint x="288.5" y="646" as="targetPoint" />
          </mxGeometry>
        </mxCell>
        <mxCell id="_snlsDBNaLdueII8mJO5-15" value="1个时间段" style="text;html=1;strokeColor=none;fillColor=none;align=center;verticalAlign=middle;whiteSpace=wrap;rounded=0;" vertex="1" parent="1">
          <mxGeometry x="219" y="729" width="60" height="30" as="geometry" />
        </mxCell>
        <mxCell id="_snlsDBNaLdueII8mJO5-16" value="" style="shape=partialRectangle;whiteSpace=wrap;html=1;bottom=1;right=1;left=1;top=0;fillColor=none;routingCenterX=-0.5;strokeColor=#FF0000;" vertex="1" parent="1">
          <mxGeometry x="288" y="766" width="100" height="10" as="geometry" />
        </mxCell>
        <mxCell id="_snlsDBNaLdueII8mJO5-17" value="" style="shape=partialRectangle;whiteSpace=wrap;html=1;bottom=1;right=1;left=1;top=0;fillColor=none;routingCenterX=-0.5;strokeColor=#FF9999;" vertex="1" parent="1">
          <mxGeometry x="388" y="766" width="100" height="10" as="geometry" />
        </mxCell>
        <mxCell id="_snlsDBNaLdueII8mJO5-18" value="" style="shape=partialRectangle;whiteSpace=wrap;html=1;bottom=1;right=1;left=1;top=0;fillColor=none;routingCenterX=-0.5;strokeColor=#FF9999;" vertex="1" parent="1">
          <mxGeometry x="488" y="766" width="100" height="10" as="geometry" />
        </mxCell>
        <mxCell id="_snlsDBNaLdueII8mJO5-19" value="" style="shape=partialRectangle;whiteSpace=wrap;html=1;bottom=1;right=1;left=1;top=0;fillColor=none;routingCenterX=-0.5;strokeColor=#FF9999;" vertex="1" parent="1">
          <mxGeometry x="588" y="766" width="50" height="10" as="geometry" />
        </mxCell>
        <mxCell id="_snlsDBNaLdueII8mJO5-20" value="" style="endArrow=classic;html=1;rounded=0;" edge="1" parent="1">
          <mxGeometry width="50" height="50" relative="1" as="geometry">
            <mxPoint x="288" y="855" as="sourcePoint" />
            <mxPoint x="288" y="779" as="targetPoint" />
          </mxGeometry>
        </mxCell>
        <mxCell id="_snlsDBNaLdueII8mJO5-21" value="新的投放节点" style="text;html=1;strokeColor=none;fillColor=none;align=center;verticalAlign=middle;whiteSpace=wrap;rounded=0;" vertex="1" parent="1">
          <mxGeometry x="254" y="874" width="60" height="30" as="geometry" />
        </mxCell>
        <mxCell id="_snlsDBNaLdueII8mJO5-26" value="" style="endArrow=classic;html=1;rounded=0;" edge="1" parent="1">
          <mxGeometry width="50" height="50" relative="1" as="geometry">
            <mxPoint x="380" y="659" as="sourcePoint" />
            <mxPoint x="439" y="759" as="targetPoint" />
          </mxGeometry>
        </mxCell>
        <mxCell id="_snlsDBNaLdueII8mJO5-27" value="" style="endArrow=classic;html=1;rounded=0;" edge="1" parent="1">
          <mxGeometry width="50" height="50" relative="1" as="geometry">
            <mxPoint x="488" y="659" as="sourcePoint" />
            <mxPoint x="547" y="759" as="targetPoint" />
          </mxGeometry>
        </mxCell>
        <mxCell id="_snlsDBNaLdueII8mJO5-28" value="" style="endArrow=classic;html=1;rounded=0;strokeColor=#FF0000;" edge="1" parent="1">
          <mxGeometry width="50" height="50" relative="1" as="geometry">
            <mxPoint x="321" y="662" as="sourcePoint" />
            <mxPoint x="614" y="757" as="targetPoint" />
          </mxGeometry>
        </mxCell>
        <mxCell id="_snlsDBNaLdueII8mJO5-29" value="假象：当前时间段内剩余时间补齐到所有时间之后，对用户来说，总时长不变" style="text;html=1;strokeColor=none;fillColor=none;align=center;verticalAlign=middle;whiteSpace=wrap;rounded=0;" vertex="1" parent="1">
          <mxGeometry x="150" y="572" width="423" height="40" as="geometry" />
        </mxCell>
        <mxCell id="_snlsDBNaLdueII8mJO5-30" value="" style="endArrow=classic;html=1;rounded=0;" edge="1" parent="1">
          <mxGeometry width="50" height="50" relative="1" as="geometry">
            <mxPoint x="590" y="861" as="sourcePoint" />
            <mxPoint x="590" y="781" as="targetPoint" />
          </mxGeometry>
        </mxCell>
        <mxCell id="_snlsDBNaLdueII8mJO5-31" value="最后一个投放节点不足与投放一个时间段，则不认为可以投放" style="text;html=1;strokeColor=none;fillColor=none;align=center;verticalAlign=middle;whiteSpace=wrap;rounded=0;" vertex="1" parent="1">
          <mxGeometry x="427" y="869" width="341" height="35" as="geometry" />
        </mxCell>
      </root>
    </mxGraphModel>
  </diagram>
</mxfile>
